<svg width="1200" height="630" viewBox="0 0 1200 630" xmlns="http://www.w3.org/2000/svg">
  <rect width="1200" height="630" fill="#ffffff"/>
  <rect x="8" y="8" width="1184" height="614" rx="20" fill="#ffffff" stroke="#e5e7eb" stroke-width="2"/>

  <g stroke="#eef1f5" stroke-width="2">
    <line x1="40" y1="86" x2="1160" y2="86"/>
    <line x1="40" y1="120" x2="1160" y2="120"/>
  </g>
  <g fill="#cbd5e1">
    <circle cx="520" cy="58" r="3.5"/><circle cx="560" cy="58" r="3.5"/><circle cx="600" cy="58" r="3.5"/>
    <circle cx="640" cy="58" r="3.5"/><circle cx="680" cy="58" r="3.5"/>
  </g>

  <rect x="8" y="520" width="1184" height="102" rx="0" fill="#f3f6f4"/>
  <line x1="40" y1="520" x2="1160" y2="520" stroke="#e2e8e3" stroke-width="2"/>
  <line x1="600" y1="520" x2="600" y2="622" stroke="#d6e0d8" stroke-width="2"/>
  <circle cx="600" cy="571" r="30" fill="none" stroke="#d6e0d8" stroke-width="2"/>

  <g transform="translate(600,200)">
    <g transform="translate(-90,-90) scale(1.5)">
      <ellipse cx="60" cy="60" rx="58" ry="58" fill="#0a0a0a"/>
      <ellipse cx="60" cy="64" rx="40" ry="34" fill="#ffffff"/>
      <line x1="60" y1="32" x2="60" y2="96" stroke="#1a1a1a" stroke-width="2.5"/>
      <circle cx="60" cy="64" r="11" fill="none" stroke="#1a1a1a" stroke-width="2.5"/>
      <path d="M30 18 L42 40 L24 40 Z" fill="#0a0a0a"/>
      <path d="M90 18 L96 40 L78 40 Z" fill="#0a0a0a"/>
      <path d="M60 57 l2.3 4.7 5.2 .7 -3.8 3.7 .9 5.2 -4.6 -2.5 -4.6 2.5 .9 -5.2 -3.8 -3.7 5.2 -.7 Z" fill="#0a0a0a"/>
    </g>
  </g>

  <text x="600" y="378" text-anchor="middle" font-family="'Segoe UI', Arial, sans-serif" font-size="90" font-weight="800" fill="#0a0a0a">fanarena<tspan fill="#9ca3af">.</tspan>kr</text>
  <text x="600" y="438" text-anchor="middle" font-family="'Segoe UI', Arial, sans-serif" font-size="34" font-weight="600" fill="#2563eb">팬이 평가하고, 경기가 더 재밌어진다</text>
  <text x="600" y="484" text-anchor="middle" font-family="'Segoe UI', Arial, sans-serif" font-size="24" font-weight="500" fill="#6b7280">야구 · 축구 · LCK 선수 팬 평점</text>
</svg>
